<?xml version="1.0" encoding="UTF-8" standalone="no"?>
<svg
   version="1.0"
   width="1024.0001"
   height="576.75775"
   viewBox="0 0 768.0001 432.56833"
   preserveAspectRatio="xMidYMid"
   id="svg1"
   sodipodi:docname="alstons_barbecue_logo.svg"
   inkscape:version="1.3 (0e150ed, 2023-07-21)"
   inkscape:export-filename="alstons_barbecue_logo.png"
   inkscape:export-xdpi="300"
   inkscape:export-ydpi="300"
   xmlns:inkscape="http://www.inkscape.org/namespaces/inkscape"
   xmlns:sodipodi="http://sodipodi.sourceforge.net/DTD/sodipodi-0.dtd"
   xmlns="http://www.w3.org/2000/svg"
   xmlns:svg="http://www.w3.org/2000/svg">
  <sodipodi:namedview
     id="namedview1"
     pagecolor="#ffffff"
     bordercolor="#000000"
     borderopacity="0.25"
     inkscape:showpageshadow="2"
     inkscape:pageopacity="0.0"
     inkscape:pagecheckerboard="0"
     inkscape:deskcolor="#d1d1d1"
     inkscape:document-units="in"
     inkscape:zoom="0.95863457"
     inkscape:cx="522.61833"
     inkscape:cy="277.99957"
     inkscape:current-layer="svg1"
     showguides="false"
     showgrid="false">
    <sodipodi:guide
       position="-26.666683,758.92891"
       orientation="1,0"
       id="guide1"
       inkscape:locked="false" />
    <sodipodi:guide
       position="917.77539,792.20494"
       orientation="1,0"
       id="guide2"
       inkscape:locked="false" />
  </sodipodi:namedview>
  <defs
     id="defs1" />
  <metadata
     id="metadata1">&#10;Created by potrace 1.15, written by Peter Selinger 2001-2017&#10;</metadata>
  <g
     transform="matrix(-0.05878129,0,0,-0.05878129,761.691,414.01987)"
     fill="#000000"
     stroke="none"
     id="g1"
     style="fill:#ffd5d5;fill-opacity:1;stroke:#000000;stroke-width:24.6115;stroke-dasharray:none;stroke-opacity:1">
    <path
       d="m 4891.4938,7029.3962 c -25.5529,-2.0442 -114.4768,-8.1769 -199.3121,-14.3096 C 4116.7319,6973.18 3317.4392,6851.5485 2842.1566,6732.9833 2342.3433,6608.2855 2066.3727,6499.9416 1809.8222,6328.2265 1013.596,5794.6833 895.03083,5708.8258 735.58116,5549.3762 625.19295,5438.988 621.1045,5432.8552 590.44111,5346.9978 556.71137,5252.9634 494.36246,5024.0099 450.41159,4830.8306 425.88087,4723.5086 419.74819,4708.177 349.22237,4600.855 162.17565,4315.6855 12.94711,3980.4323 -45.313347,3717.7492 c -29.641285,-130.8305 -29.641285,-352.6291 0,-681.7495 20.442265,-238.1525 20.442265,-257.5726 -14.309586,-350.5849 -43.950877,-119.5872 -28.619172,-321.9657 41.906644,-540.698 36.796078,-114.4766 47.017211,-162.516 51.105664,-241.2186 5.110566,-93.0123 4.088452,-103.2335 -31.6855118,-207.489 C -59.622933,1519.1835 -86.197878,1386.3088 -93.352671,1223.7928 -103.57381,972.35295 -69.844066,833.34556 66.097,570.66245 168.30833,372.37248 315.49264,136.26431 328.78011,148.52967 c 2.04422,2.04423 -7.15479,61.3268 -20.44226,131.85261 -42.92876,226.90915 -52.12778,307.6561 -52.12778,494.70283 0,177.84769 1.02211,187.0467 32.70763,291.30229 52.12777,171.715 75.63637,300.5013 81.76905,451.7741 7.1548,166.6044 -3.06633,229.9754 -58.26045,362.8501 -45.9951,110.3883 -104.25555,287.2139 -133.89684,405.779 -14.30959,58.2605 -23.5086,143.0959 -29.64128,287.2139 -9.19903,197.2678 -18.39804,270.86 -58.260462,470.1721 -14.309586,71.5479 -17.375926,142.0737 -17.375926,321.9656 0,199.3121 3.06634,244.2851 22.486492,336.2753 31.685506,145.1401 77.680606,285.1696 130.830496,394.5357 41.90665,86.8796 115.4988,214.6438 121.63149,207.489 1.0221,-2.0442 -4.08846,-47.0172 -11.24326,-100.1671 -30.66339,-225.887 -17.37592,-293.3465 133.89685,-705.2581 290.28014,-789.0715 329.12044,-879.0175 436.44234,-985.3173 41.90663,-42.9287 99.145,-86.8796 130.8305,-103.2334 83.8133,-41.9066 110.3883,-64.3931 132.8747,-107.3219 26.575,-51.1056 26.575,-118.5651 0,-212.5995 -11.2432,-39.8625 -20.4423,-82.7912 -20.4423,-95.0566 0,-11.2432 -14.3095,-52.1277 -30.6633,-90.9681 -26.575,-60.3047 -30.6635,-81.769 -30.6635,-160.4717 1.0222,-100.1671 0,-99.1451 64.3932,-319.9215 60.3047,-210.5553 84.8353,-348.5406 105.2776,-615.31215 12.2654,-161.4939 15.3318,-251.43987 8.1769,-327.07625 -10.2211,-123.67571 -10.2211,-197.26787 -1.022,-234.06394 4.0884,-14.30959 29.6412,-55.19412 58.2604,-90.96808 42.9288,-53.14989 51.1057,-70.525818 51.1057,-106.299783 0,-65.415249 18.398,-116.520914 58.2604,-160.471787 30.6634,-34.75185 41.9067,-39.86242 78.7027,-39.86242 23.5086,0 48.0394,5.11057 54.1721,11.24325 18.398,18.39804 30.6633,3.06634 37.8181,-50.08355 7.1549,-53.14989 20.4423,-70.52581 74.6143,-98.12287 27.5971,-14.30959 74.6143,-16.35382 303.5676,-16.35382 261.6611,0 271.8822,1.02212 291.3023,21.46438 13.2875,14.30959 26.575,19.42015 40.8845,14.30959 35.7741,-11.24324 38.8404,22.48649 5.1106,57.23834 -35.7739,37.81819 -68.4816,55.19412 -161.4939,86.87963 -38.8403,13.28747 -81.769,31.685511 -95.0565,39.862418 -30.6634,20.442266 -60.3047,80.746949 -69.5037,141.051631 -5.1105,34.751852 -20.4423,66.437371 -51.1057,107.321891 -23.5086,31.68552 -48.0393,68.48159 -55.194,80.74695 -16.3539,31.68551 -30.6635,289.25806 -31.6856,541.72004 0,176.82557 3.0664,214.64383 20.4422,270.86003 11.2434,34.7518 20.4423,75.6363 20.4423,89.9459 0,36.7961 11.2433,71.5479 21.4644,71.5479 5.1106,0 9.1991,-32.7076 9.1991,-72.57 0,-66.4374 4.0884,-80.7469 55.194,-186.0246 30.6635,-63.37102 70.5259,-162.51599 88.9239,-221.79856 17.3759,-59.28257 56.2162,-166.60447 85.8575,-240.19661 29.6413,-72.57005 56.2162,-149.22855 60.3047,-169.67081 7.1548,-41.90664 26.575,-63.37102 78.7027,-84.8354 44.973,-19.42016 57.2384,-33.72974 79.7248,-95.05653 l 17.376,-49.06144 79.7248,-5.110569 80.7469,-5.110566 12.2654,-49.061438 c 7.1549,-26.574944 23.5087,-60.304682 35.774,-73.592155 l 23.5086,-25.552832 h 289.2581 c 284.1475,0 290.2801,0 310.7224,22.486493 43.9508,48.039323 16.3538,77.680608 -120.6094,130.830498 -60.3046,23.508599 -131.8526,55.194119 -159.4496,69.503699 -53.1499,28.61917 -140.0295,118.56514 -194.2016,201.35632 -52.1277,77.68061 -127.7642,333.20892 -180.9141,608.15737 -25.5527,131.85263 -30.6633,324.00993 -11.2432,371.02713 7.1548,16.3538 54.1721,94.0344 106.2998,173.7592 149.2285,230.9977 194.2015,324.01 227.9313,470.1722 20.4423,89.9459 45.9951,265.7494 45.9951,325.032 v 45.995 l 89.9459,-4.0884 c 73.5922,-3.0663 99.145,0 150.2507,18.3981 33.7297,12.2653 97.1007,31.6855 142.0737,43.9508 115.4988,30.6634 173.7593,18.398 363.8724,-74.6143 213.6216,-105.2776 350.5848,-189.0909 434.3981,-267.7936 84.8354,-78.7027 107.3219,-89.946 185.0025,-89.946 101.1892,0 121.6315,15.3318 218.7322,164.5603 95.0566,146.1622 261.6611,279.0369 408.8454,325.032 126.742,39.8624 427.2433,90.968 756.3637,129.8084 75.6365,8.1769 255.5284,18.398 398.6242,21.4643 222.8207,5.1106 292.3244,2.0443 480.3933,-16.3537 560.1181,-57.2384 836.0887,-117.5432 943.4105,-206.467 74.6143,-61.3268 101.1892,-143.0958 150.2506,-458.9289 33.7298,-219.7542 54.1721,-312.7666 82.7913,-370.0049 10.221,-20.4422 68.4815,-89.946 127.7642,-153.317 171.7149,-181.9362 222.8206,-273.9264 274.9484,-493.68073 36.7961,-153.31696 56.2162,-305.61184 56.2162,-439.50868 V 369.30613 l 44.973,-82.79117 c 51.1056,-95.05653 93.0123,-206.466878 112.4324,-303.567639 l 13.2875,-66.437363 71.5479,-3.066341 c 80.747,-3.066339 84.8354,0 84.8354,82.7911766 0,48.0393244 12.2654,49.0614374 29.6413,2.0442266 18.3981,-51.1056632 56.2163,-91.9901952 100.1671,-110.3882402 33.7298,-12.26536 84.8355,-13.28747 384.3147,-2.04422 222.8206,7.1548 348.5406,15.331698 355.6953,22.486491 7.1548,7.154793 9.1991,22.486492 5.1106,35.773966 -4.0884,17.375925 -33.7297,37.818191 -111.4104,77.680609 -119.5871,61.326796 -210.5553,128.786274 -248.3734,183.980384 -65.4153,97.10076 -174.7814,281.08115 -214.6439,362.85022 -63.371,129.80838 -78.7026,210.55533 -71.5479,372.0492 3.0664,71.54787 9.1991,257.57247 12.2654,411.91157 l 5.1106,281.0812 98.1229,279.0369 c 93.0123,262.6832 99.1449,278.0149 123.6756,278.0149 61.3268,0 244.2851,-33.7298 279.0369,-52.1278 21.4644,-10.2212 90.9682,-52.1278 154.3391,-91.9902 110.3883,-70.5258 236.1082,-137.9853 300.5013,-162.516 16.3539,-7.1548 73.5922,-16.3538 126.7421,-21.4644 190.1138,-18.3981 306.6348,-59.2826 470.1728,-165.5823 132.875,-85.8575 371.027,-205.4448 476.305,-238.1525 107.321,-33.7296 189.09,-30.6633 309.699,11.2433 l 81.77,28.6191 90.968,-21.4643 c 104.256,-25.5528 174.782,-28.6191 232.019,-7.1548 67.46,23.5086 178.871,18.3981 332.187,-16.3538 253.485,-58.2604 413.956,-50.0835 558.075,25.5528 35.774,19.4201 91.989,40.8845 123.676,48.0393 52.127,12.2654 59.282,17.376 73.592,51.1057 12.264,28.6192 25.552,39.8624 56.215,51.1057 44.973,15.3316 50.084,23.5085 99.146,144.118 19.419,49.0614 45.995,94.0344 70.525,119.5872 21.465,22.4865 47.018,52.1277 56.217,65.4152 19.419,30.6635 56.215,177.8477 56.215,226.9092 0,63.3711 -64.392,95.0565 -229.975,109.3661 -27.596,3.0664 -35.774,13.2875 -84.835,105.2776 -72.57,135.9412 -103.233,180.9142 -225.887,330.1427 -194.202,236.1081 -241.218,318.8994 -258.595,453.8182 -13.288,106.2998 -18.397,87.9018 61.327,233.0419 48.039,88.9238 50.083,100.1671 38.841,209.5332 -7.155,80.7469 -7.155,83.8133 33.729,185.0025 50.084,122.6536 54.172,193.1794 20.442,324.0099 -11.242,44.973 -18.397,93.0123 -15.331,106.2998 13.287,50.0835 69.503,96.0786 187.046,151.2727 178.871,84.8355 248.374,161.494 300.502,332.1869 33.73,109.3661 33.73,264.7273 -1.022,403.7347 -42.929,174.7814 -82.791,189.091 -201.356,74.6143 -95.057,-91.9903 -121.632,-135.9411 -140.03,-234.064 -30.663,-159.4496 -72.57,-228.9533 -155.361,-258.5946 l -41.907,-14.3096 -7.155,143.0958 c -5.111,96.0787 -15.332,177.8478 -32.707,247.3515 -13.288,57.2383 -24.531,115.4988 -24.531,129.8084 0,14.3095 -6.133,33.7297 -13.288,44.9729 -17.376,22.4865 -40.884,19.4202 -159.449,-26.5749 -77.681,-29.6413 -93.013,-39.8624 -178.87,-126.7421 -105.278,-106.2998 -174.782,-157.4054 -225.887,-165.5823 -27.598,-4.0884 -48.04,2.0442 -100.168,30.6634 -129.808,72.5701 -302.545,210.5554 -637.798,507.9903 -395.558,351.607 -992.4725,792.1378 -1258.222,929.1009 -221.7986,113.4547 -718.5456,270.8601 -1095.7054,347.5186 -395.5579,79.7248 -734.8995,112.4324 -1420.7375,133.8968 -351.6069,11.2432 -418.0443,16.3538 -792.1378,66.4374 -468.1279,63.371 -533.5431,67.4595 -955.6759,71.5479 -216.688,1.0222 -413.9559,1.0222 -439.5086,-1.0221 z"
       id="path1"
       style="fill:#ffd5d5;fill-opacity:1;stroke:#000000;stroke-width:24.6115;stroke-dasharray:none;stroke-opacity:1"
       inkscape:label="hog" />
  </g>
  <g
     transform="matrix(0.7337124,0,0,0.7337124,152.20752,142.73209)"
     id="g11"
     style="display:inline;fill:none;stroke:#000000;stroke-width:5.11099457;stroke-linecap:round;stroke-linejoin:round;stroke-dasharray:none"
     inkscape:label="alston's">
    <g
       inkscape:label="Hershey Text"
       style="fill:none;stroke:#000000;stroke-width:5.11099457;stroke-linecap:round;stroke-linejoin:round;stroke-dasharray:none"
       id="g10">
      <g
         transform="translate(39.2478,23.6579)"
         id="g9"
         style="stroke-width:5.11099457;stroke-dasharray:none">
        <path
           d="M 155,213 H 522 M 606,0 342,675 h -4 L 70,0"
           style="stroke-width:35.49301784;stroke-dasharray:none"
           transform="scale(0.144,-0.144)"
           id="path2" />
        <path
           d="M 458,10 H 140 v 670"
           style="stroke-width:35.49301784;stroke-dasharray:none"
           transform="matrix(0.144,0,0,-0.144,97.344,0)"
           id="path3" />
        <path
           d="M 95,109 C 123,43 193,0 285,0 c 119,0 191,74 191,163 0,201 -367,171 -367,363 0,79 62,154 184,154 86,0 139,-38 163,-90"
           style="stroke-width:35.49301784;stroke-dasharray:none"
           transform="matrix(0.144,0,0,-0.144,170.496,0)"
           id="path4" />
        <path
           d="M 260,0 V 670 M 40,670 H 480"
           style="stroke-width:35.49301784;stroke-dasharray:none"
           transform="matrix(0.144,0,0,-0.144,252,0)"
           id="path5" />
        <path
           d="M 357,680 C 168,680 95,501 95,341 95,207 147,0 358,0 569,0 621,207 621,341 621,501 548,680 359,680"
           style="stroke-width:35.49301784;stroke-dasharray:none"
           transform="matrix(0.144,0,0,-0.144,326.88,0)"
           id="path6" />
        <path
           d="m 140,0 v 675 h 4 L 596,5 h 4 l -1,675"
           style="stroke-width:35.49301784;stroke-dasharray:none"
           transform="matrix(0.144,0,0,-0.144,429.984,0)"
           id="path7" />
        <path
           d="m 80,536 78,155 v 54 h -54"
           style="stroke-width:35.49301784;stroke-dasharray:none"
           transform="matrix(0.144,0,0,-0.144,536.544,0)"
           id="path8" />
        <path
           d="M 95,109 C 123,43 193,0 285,0 c 119,0 191,74 191,163 0,201 -367,171 -367,363 0,79 62,154 184,154 86,0 139,-38 163,-90"
           style="stroke-width:35.49301784;stroke-dasharray:none"
           transform="matrix(0.144,0,0,-0.144,567.936,0)"
           id="path9" />
      </g>
    </g>
  </g>
  <g
     inkscape:label="barbecue"
     style="fill:none;stroke:#000000;stroke-width:7.77632715;stroke-linecap:round;stroke-linejoin:round;stroke-dasharray:none"
     id="g18"
     transform="matrix(0.48223281,0,0,0.48223281,-274.00688,-44.079887)">
    <path
       d="m 954.5809,550.69515 h 18.36837 c 19.61561,0 26.30532,-8.50388 26.30532,-19.72899 0,-11.79204 -7.37003,-19.50222 -25.39824,-19.50222 H 954.5809 m 21.54315,0 c 11.11173,0 20.86284,-5.44248 20.86284,-18.02822 0,-8.84403 -4.87555,-17.57467 -24.15101,-17.57467 H 954.5809 v 74.8341"
       style="stroke-width:7.77632715;stroke-dasharray:none"
       id="path10" />
    <path
       d="m 1089.3645,527.67799 h 41.6123 m 9.5243,24.15101 -29.9336,-76.53488 h -0.4536 l -30.3871,76.53488"
       style="stroke-width:7.77632715;stroke-dasharray:none"
       id="path11" />
    <path
       d="m 1220.9733,551.829 v -75.96795 h 19.6156 c 15.1936,0 21.8833,8.61726 21.8833,18.48175 0,11.67866 -9.4109,18.48176 -20.5227,18.48176 h -20.9762 m 42.9729,39.00444 -19.9557,-39.00444"
       style="stroke-width:7.77632715;stroke-dasharray:none"
       id="path12" />
    <path
       d="m 1344.4184,550.69515 h 18.3684 c 19.6156,0 26.3053,-8.50388 26.3053,-19.72899 0,-11.79204 -7.37,-19.50222 -25.3982,-19.50222 h -19.2755 m 21.5432,0 c 11.1117,0 20.8628,-5.44248 20.8628,-18.02822 0,-8.84403 -4.8756,-17.57467 -24.151,-17.57467 h -18.255 v 74.8341"
       style="stroke-width:7.77632715;stroke-dasharray:none"
       id="path13" />
    <path
       d="m 1510.4964,550.69515 h -40.932 v -74.8341 h 40.932 m -40.932,35.60289 h 39.0044"
       style="stroke-width:7.77632715;stroke-dasharray:none"
       id="path14" />
    <path
       d="m 1644.3729,490.94125 c -4.1952,-10.65819 -12.0188,-16.21405 -23.5841,-16.21405 -19.3888,0 -29.8202,15.42036 -29.8202,38.43751 0,25.39824 12.8125,38.66429 29.8202,38.66429 13.2661,0 21.9967,-8.05034 25.1715,-17.34791"
       style="stroke-width:7.77632715;stroke-dasharray:none"
       id="path15" />
    <path
       d="m 1726.4325,474.7272 v 49.32247 c 0,17.91483 9.9779,27.77933 24.6046,27.77933 15.3069,0 24.6045,-9.8645 24.6045,-27.77933 V 474.7272"
       style="stroke-width:7.77632715;stroke-dasharray:none"
       id="path16" />
    <path
       d="m 1897.0458,550.69515 h -40.932 v -74.8341 h 40.932 m -40.932,35.60289 h 39.0044"
       style="stroke-width:7.77632715;stroke-dasharray:none"
       id="path17" />
  </g>
</svg>
